<?xml version="1.0" encoding="utf-8"?>
<!-- Generator: Adobe Illustrator 19.2.1, SVG Export Plug-In . SVG Version: 6.00 Build 0)  -->
<svg version="1.1" id="Layer_1" xmlns="http://www.w3.org/2000/svg" xmlns:xlink="http://www.w3.org/1999/xlink" x="0px" y="0px"
	 viewBox="0 0 203.6 197.1" style="enable-background:new 0 0 203.6 197.1;" xml:space="preserve">
<style type="text/css">
	.st0{fill:#E2E2E2;}
	.st1{fill:#BBBDBF;}
	.st2{fill:url(#SVGID_1_);}
	.st3{fill:url(#SVGID_2_);}
	.st4{fill:url(#SVGID_3_);}
	.st5{fill:none;stroke:#FFFFFF;stroke-width:0.5;stroke-miterlimit:10;}
	.st6{fill:#FFFFFF;}
	.st7{fill:url(#SVGID_4_);stroke:#DD313E;stroke-width:0.2;stroke-miterlimit:10;}
	.st8{fill:url(#SVGID_5_);stroke:#DD313E;stroke-width:0.2;stroke-miterlimit:10;}
	.st9{fill:url(#SVGID_6_);}
	.st10{fill:#DD313E;}
	.st11{fill:url(#SVGID_7_);}
	.st12{fill:url(#SVGID_8_);}
	.st13{fill:url(#SVGID_9_);}
	.st14{fill:#E6E7E8;}
	.st15{fill:url(#SVGID_10_);}
	.st16{fill:url(#SVGID_11_);}
	.st17{fill:url(#SVGID_12_);}
</style>
<g>
	<g>
		<polygon class="st0" points="0.3,112.5 101.9,79.4 203.3,112.5 101.8,142.2 		"/>
		<path class="st1" d="M101.8,79.5l101.1,33l-101.1,29.6L0.7,112.5L101.8,79.5 M101.8,79.3L0,112.5l101.8,29.8l101.8-29.8
			L101.8,79.3L101.8,79.3z"/>
	</g>
	<g>
		<linearGradient id="SVGID_1_" gradientUnits="userSpaceOnUse" x1="50.9121" y1="112.569" x2="50.9121" y2="197.0163">
			<stop  offset="0" style="stop-color:#D1D1D1"/>
			<stop  offset="0.3927" style="stop-color:#CECECE"/>
			<stop  offset="0.6668" style="stop-color:#C5C5C5"/>
			<stop  offset="0.9042" style="stop-color:#B6B6B6"/>
			<stop  offset="1" style="stop-color:#ADADAD"/>
		</linearGradient>
		<polygon class="st2" points="0,167.2 0.1,112.6 101.8,142.4 101.7,197 		"/>
		<path class="st1" d="M0.1,112.7l101.5,29.7v54.5L0.1,167.2V112.7 M0,112.5v54.8l101.8,29.8v-54.8L0,112.5L0,112.5z"/>
	</g>
	<g>
		<linearGradient id="SVGID_2_" gradientUnits="userSpaceOnUse" x1="152.7361" y1="196.9821" x2="152.7361" y2="112.6032">
			<stop  offset="0" style="stop-color:#D4D4D4"/>
			<stop  offset="0.4558" style="stop-color:#D1D1D1"/>
			<stop  offset="0.7735" style="stop-color:#C8C8C8"/>
			<stop  offset="1" style="stop-color:#BCBCBC"/>
		</linearGradient>
		<polygon class="st3" points="101.9,142.4 203.5,112.6 203.5,167.2 101.9,197 		"/>
		<path class="st1" d="M203.4,112.7v54.4L102,196.8v-54.4L203.4,112.7 M203.6,112.5l-101.8,29.8v54.8l101.8-29.8V112.5L203.6,112.5z
			"/>
	</g>
	<linearGradient id="SVGID_3_" gradientUnits="userSpaceOnUse" x1="103.5732" y1="65.2699" x2="103.5732" y2="12.331">
		<stop  offset="0" style="stop-color:#CADAD9"/>
		<stop  offset="1" style="stop-color:#E6E7E8"/>
	</linearGradient>
	<path class="st4" d="M99.1,1.7V87c0,1.3,2,2.4,4.5,2.4c2.5,0,4.5-1.1,4.5-2.4V1.7H99.1z"/>
	<path class="st5" d="M108.7,17.3c0,1.3-2.3,2.4-5.1,2.4c-2.8,0-5.1-1.1-5.1-2.4"/>
	<path class="st5" d="M108.7,24.1c0,1.3-2.3,2.4-5.1,2.4c-2.8,0-5.1-1.1-5.1-2.4"/>
	<path class="st5" d="M108.7,30.8c0,1.3-2.3,2.4-5.1,2.4c-2.8,0-5.1-1.1-5.1-2.4"/>
	<g>
		<path class="st6" d="M99.1,7.7c0.2,0.4,0.9,0.9,1.7,1c0.9,0.1,2.1,0,3.3-0.3c2.5-0.7,4.1-2,3.9-3.3l0-0.4c0.2,0.1,0.2,0.1,0.4,0.2
			c0,0,0.1,0.1,0.1,0.1c0.4,1.4-1.5,3.1-4.3,3.9s-5.3,0.4-5.7-1c-0.1-0.3,0.5-0.5,0.5-0.5"/>
	</g>
	<g>
		<path class="st6" d="M99.1,13.3c0.2,0.4,0.9,0.9,1.7,1c0.9,0.1,2.1,0,3.3-0.3c2.5-0.7,4.1-2,3.9-3.3l0-0.4
			c0.2,0.1,0.2,0.1,0.4,0.2c0,0,0.1,0.1,0.1,0.1c0.4,1.4-1.5,3.1-4.3,3.9s-5.3,0.4-5.7-1C98.5,13.2,99,13,99.1,13"/>
	</g>
	<g>
		<path class="st6" d="M99.1,18.9c0.2,0.4,0.9,0.9,1.7,1c0.9,0.1,2.1,0,3.3-0.3c2.5-0.7,4.1-2,3.9-3.3l0-0.4
			c0.2,0.1,0.2,0.1,0.4,0.2c0,0,0.1,0.1,0.1,0.1c0.4,1.4-1.5,3.1-4.3,3.9s-5.3,0.4-5.7-1c-0.1-0.3,0.5-0.5,0.5-0.5"/>
	</g>
	<g>
		<path class="st6" d="M99.1,24.5c0.2,0.4,0.9,0.9,1.7,1c0.9,0.1,2.1,0,3.3-0.3c2.5-0.7,4.1-2,3.9-3.3l0-0.4
			c0.2,0.1,0.2,0.1,0.4,0.2c0,0,0.1,0.1,0.1,0.1c0.4,1.4-1.5,3.1-4.3,3.9s-5.3,0.4-5.7-1c-0.1-0.3,0.5-0.5,0.5-0.5"/>
	</g>
	<g>
		<path class="st6" d="M99.1,30.1c0.2,0.4,0.9,0.9,1.7,1c0.9,0.1,2.1,0,3.3-0.3c2.5-0.7,4.1-2,3.9-3.3l0-0.4
			c0.2,0.1,0.2,0.1,0.4,0.2c0,0,0.1,0.1,0.1,0.1c0.4,1.4-1.5,3.1-4.3,3.9c-2.8,0.8-5.3,0.4-5.7-1c-0.1-0.3,0.5-0.5,0.5-0.5"/>
	</g>
	<g>
		<path class="st6" d="M99.1,35.7c0.2,0.4,0.9,0.9,1.7,1c0.9,0.1,2.1,0,3.3-0.3c2.5-0.7,4.1-2,3.9-3.3l0-0.4
			c0.2,0.1,0.2,0.1,0.4,0.2c0,0,0.1,0.1,0.1,0.1c0.4,1.4-1.5,3.1-4.3,3.9s-5.3,0.4-5.7-1c-0.1-0.3,0.5-0.5,0.5-0.5"/>
	</g>
	<g>
		<path class="st6" d="M99.1,41.3c0.2,0.4,0.9,0.9,1.7,1c0.9,0.1,2.1,0,3.3-0.3c2.5-0.7,4.1-2,3.9-3.3l0-0.4
			c0.2,0.1,0.2,0.1,0.4,0.2c0,0,0.1,0.1,0.1,0.1c0.4,1.4-1.5,3.1-4.3,3.9s-5.3,0.4-5.7-1C98.5,41.2,99,41,99.1,41"/>
	</g>
	<g>
		<path class="st6" d="M99.1,46.9c0.2,0.4,0.9,0.9,1.7,1c0.9,0.1,2.1,0,3.3-0.3c2.5-0.7,4.1-2,3.9-3.3l0-0.4
			c0.2,0.1,0.2,0.1,0.4,0.2c0,0,0.1,0.1,0.1,0.1c0.4,1.4-1.5,3.1-4.3,3.9s-5.3,0.4-5.7-1c-0.1-0.3,0.5-0.5,0.5-0.5"/>
	</g>
	<g>
		<path class="st6" d="M99.1,52.5c0.2,0.4,0.9,0.9,1.7,1c0.9,0.1,2.1,0,3.3-0.3c2.5-0.7,4.1-2,3.9-3.3l0-0.4
			c0.2,0.1,0.2,0.1,0.4,0.2c0,0,0.1,0.1,0.1,0.1c0.4,1.4-1.5,3.1-4.3,3.9s-5.3,0.4-5.7-1c-0.1-0.3,0.5-0.5,0.5-0.5"/>
	</g>
	<g>
		<path class="st6" d="M99.1,58.1c0.2,0.4,0.9,0.9,1.7,1c0.9,0.1,2.1,0,3.3-0.3c2.5-0.7,4.1-2,3.9-3.3l0-0.4
			c0.2,0.1,0.2,0.1,0.4,0.2c0,0,0.1,0.1,0.1,0.1c0.4,1.4-1.5,3.1-4.3,3.9s-5.3,0.4-5.7-1c-0.1-0.3,0.5-0.5,0.5-0.5"/>
	</g>
	<g>
		<path class="st6" d="M99.1,63.7c0.2,0.4,0.9,0.9,1.7,1c0.9,0.1,2.1,0,3.3-0.3c2.5-0.7,4.1-2,3.9-3.3l0-0.4
			c0.2,0.1,0.2,0.1,0.4,0.2c0,0,0.1,0.1,0.1,0.1c0.4,1.4-1.5,3.1-4.3,3.9s-5.3,0.4-5.7-1c-0.1-0.3,0.5-0.5,0.5-0.5"/>
	</g>
	<g>
		<path class="st6" d="M99.1,69.3c0.2,0.4,0.9,0.9,1.7,1c0.9,0.1,2.1,0,3.3-0.3c2.5-0.7,4.1-2,3.9-3.3l0-0.4
			c0.2,0.1,0.2,0.1,0.4,0.2c0,0,0.1,0.1,0.1,0.1c0.4,1.4-1.5,3.1-4.3,3.9s-5.3,0.4-5.7-1C98.5,69.2,99,69,99.1,69"/>
	</g>
	<g>
		<path class="st6" d="M99.1,74.9c0.2,0.4,0.9,0.9,1.7,1c0.9,0.1,2.1,0,3.3-0.3c2.5-0.7,4.1-2,3.9-3.3l0-0.4
			c0.2,0.1,0.2,0.1,0.4,0.2c0,0,0.1,0.1,0.1,0.1c0.4,1.4-1.5,3.1-4.3,3.9s-5.3,0.4-5.7-1c-0.1-0.3,0.5-0.5,0.5-0.5"/>
	</g>
	<g>
		<path class="st6" d="M99.1,80.5c0.2,0.4,0.9,0.9,1.7,1c0.9,0.1,2.1,0,3.3-0.3c2.5-0.7,4.1-2,3.9-3.3l0-0.4
			c0.2,0.1,0.2,0.1,0.4,0.2c0,0,0.1,0.1,0.1,0.1c0.4,1.4-1.5,3.1-4.3,3.9s-5.3,0.4-5.7-1c-0.1-0.3,0.5-0.5,0.5-0.5"/>
	</g>
	<g>
		<path class="st6" d="M99.1,86.1c0.2,0.4,0.9,0.9,1.7,1c0.9,0.1,2.1,0,3.3-0.3c2.5-0.7,4.1-2,3.9-3.3l0-0.4
			c0.2,0.1,0.2,0.1,0.4,0.2c0,0,0.1,0.1,0.1,0.1c0.4,1.4-1.5,3.1-4.3,3.9s-5.3,0.4-5.7-1c-0.1-0.3,0.5-0.5,0.5-0.5"/>
	</g>
	<path class="st5" d="M103.6,20"/>
	<path class="st5" d="M103.6,26.8"/>
	<path class="st5" d="M108.7,51.1c0,1.3-2.3,2.4-5.1,2.4c-2.8,0-5.1-1.1-5.1-2.4"/>
	<path class="st5" d="M108.7,57.9c0,1.3-2.3,2.4-5.1,2.4c-2.8,0-5.1-1.1-5.1-2.4"/>
	<path class="st5" d="M108.7,64.7c0,1.3-2.3,2.4-5.1,2.4c-2.8,0-5.1-1.1-5.1-2.4"/>
	<g>
		
			<linearGradient id="SVGID_4_" gradientUnits="userSpaceOnUse" x1="45.4758" y1="64.9149" x2="156.3792" y2="64.9149" gradientTransform="matrix(0.995 -4.600000e-03 -4.600000e-03 0.982 1.318 4.9399)">
			<stop  offset="0" style="stop-color:#CC1E2D"/>
			<stop  offset="0.3792" style="stop-color:#E62728"/>
			<stop  offset="0.7412" style="stop-color:#F92D25"/>
			<stop  offset="1" style="stop-color:#FF2F24"/>
		</linearGradient>
		<path class="st7" d="M151.1,90.6L151.1,90.6c2.4-5,4.2-10.6,5.5-16.7L137.7,71c-2.8,11.1-8.4,22.3-19.9,26
			C101,102.3,89.8,90,84,71.6L149.5,52c-3.1-11.1-12.7-24.3-20.6-29.4c-9.6-6.2-22-12.3-45.5-5.1c-25.7,7.8-33.6,30.3-33.6,30.3
			c-4.3,10.7-4.8,23.1-0.7,36c4.6,14.6,13.1,25.9,24.6,31.5c10.2,4.9,25.2,10.4,45.3,4.1C139,113,151.1,90.6,151.1,90.6 M79.7,55.5
			c-2-8.6,2.9-16.3,10.6-18.8c7.8-2.5,18.9,0.3,21.7,8.6L79.7,55.5z"/>
		<linearGradient id="SVGID_5_" gradientUnits="userSpaceOnUse" x1="104.4036" y1="125.4655" x2="104.4036" y2="15.8897">
			<stop  offset="0" style="stop-color:#A91E2D"/>
			<stop  offset="0.2601" style="stop-color:#C9242A"/>
			<stop  offset="0.559" style="stop-color:#E62A27"/>
			<stop  offset="0.8161" style="stop-color:#F92E25"/>
			<stop  offset="1" style="stop-color:#FF2F24"/>
		</linearGradient>
		<path class="st8" d="M154.9,93.4L154.9,93.4c2.4-5.1,4.3-10.8,5.6-17l-19.1-3c-2.8,11.3-8.5,22.7-20.2,26.4
			c-17.1,5.4-28.4-7.1-34.4-25.9l63.8-20.3c-3.1-11.3-10.1-24.3-18.1-29.5c-9.8-6.3-22.1-11.9-46.3-5.3C59.6,26.1,52,49.7,52,49.7
			c-4.4,10.9-4.9,23.5-0.7,36.6c4.7,14.9,13.3,26.4,25,32c10.4,5,25.6,10.7,46,4.2C142.6,116.1,154.9,93.4,154.9,93.4 M82.4,57.6
			c-2-8.7,2.9-16.6,10.7-19.1c7.9-2.5,15.5,1.4,18.4,9.8L82.4,57.6z"/>
		<g>
			<linearGradient id="SVGID_6_" gradientUnits="userSpaceOnUse" x1="138.1621" y1="73.6894" x2="159.9648" y2="73.6894">
				<stop  offset="0" style="stop-color:#A91E2D"/>
				<stop  offset="0.2601" style="stop-color:#C9242A"/>
				<stop  offset="0.559" style="stop-color:#E62A27"/>
				<stop  offset="0.8161" style="stop-color:#F92E25"/>
				<stop  offset="1" style="stop-color:#FF2F24"/>
			</linearGradient>
			<polygon class="st9" points="141.3,73.3 138.2,71.2 156.6,74 160,76.2 			"/>
			<path class="st10" d="M138.6,71.3l17.9,2.8l3,1.9l-18.2-2.8L138.6,71.3 M137.7,71l3.5,2.4l19.1,3l-3.8-2.5L137.7,71L137.7,71z"/>
		</g>
	</g>
	<linearGradient id="SVGID_7_" gradientUnits="userSpaceOnUse" x1="16.8496" y1="91.1527" x2="16.8496" y2="38.2138">
		<stop  offset="0" style="stop-color:#CADAD9"/>
		<stop  offset="1" style="stop-color:#E6E7E8"/>
	</linearGradient>
	<path class="st11" d="M12.3,27.6v85.3c0,1.3,2,2.4,4.5,2.4c2.5,0,4.5-1.1,4.5-2.4V27.6H12.3z"/>
	<linearGradient id="SVGID_8_" gradientUnits="userSpaceOnUse" x1="188.3496" y1="91.1527" x2="188.3496" y2="38.2138">
		<stop  offset="0" style="stop-color:#CADAD9"/>
		<stop  offset="1" style="stop-color:#E6E7E8"/>
	</linearGradient>
	<path class="st12" d="M183.8,27.6v85.3c0,1.3,2,2.4,4.5,2.4c2.5,0,4.5-1.1,4.5-2.4V27.6H183.8z"/>
	<g>
		<linearGradient id="SVGID_9_" gradientUnits="userSpaceOnUse" x1="188.3496" y1="28.3543" x2="188.3496" y2="26.3785">
			<stop  offset="0" style="stop-color:#CADAD9"/>
			<stop  offset="1" style="stop-color:#E6E7E8"/>
		</linearGradient>
		<path class="st13" d="M188.3,29.3c-2.4,0-4.4-0.7-4.4-1.6s2-1.6,4.4-1.6s4.4,0.7,4.4,1.6S190.7,29.3,188.3,29.3z"/>
		<path class="st14" d="M188.3,26.1c2.5,0,4.3,0.8,4.3,1.5s-1.8,1.5-4.3,1.5s-4.3-0.8-4.3-1.5S185.8,26.1,188.3,26.1 M188.3,25.9
			c-2.5,0-4.5,0.8-4.5,1.7s2,1.7,4.5,1.7c2.5,0,4.5-0.8,4.5-1.7S190.8,25.9,188.3,25.9L188.3,25.9z"/>
	</g>
	<g>
		<linearGradient id="SVGID_10_" gradientUnits="userSpaceOnUse" x1="103.5735" y1="2.4715" x2="103.5735" y2="0.4957">
			<stop  offset="0" style="stop-color:#CADAD9"/>
			<stop  offset="1" style="stop-color:#E6E7E8"/>
		</linearGradient>
		<path class="st15" d="M103.6,3.4c-2.4,0-4.4-0.7-4.4-1.6s2-1.6,4.4-1.6c2.4,0,4.4,0.7,4.4,1.6S106,3.4,103.6,3.4z"/>
		<path class="st14" d="M103.6,0.2c2.5,0,4.3,0.8,4.3,1.5s-1.8,1.5-4.3,1.5s-4.3-0.8-4.3-1.5S101,0.2,103.6,0.2 M103.6,0
			c-2.5,0-4.5,0.8-4.5,1.7s2,1.7,4.5,1.7c2.5,0,4.5-0.8,4.5-1.7S106.1,0,103.6,0L103.6,0z"/>
	</g>
	<g>
		<linearGradient id="SVGID_11_" gradientUnits="userSpaceOnUse" x1="16.8496" y1="28.3259" x2="16.8496" y2="26.3502">
			<stop  offset="0" style="stop-color:#CADAD9"/>
			<stop  offset="1" style="stop-color:#E6E7E8"/>
		</linearGradient>
		<path class="st16" d="M16.8,29.2c-2.4,0-4.4-0.7-4.4-1.6s2-1.6,4.4-1.6s4.4,0.7,4.4,1.6S19.2,29.2,16.8,29.2z"/>
		<path class="st14" d="M16.8,26.1c2.5,0,4.3,0.8,4.3,1.5s-1.8,1.5-4.3,1.5s-4.3-0.8-4.3-1.5S14.3,26.1,16.8,26.1 M16.8,25.9
			c-2.5,0-4.5,0.8-4.5,1.7s2,1.7,4.5,1.7c2.5,0,4.5-0.8,4.5-1.7S19.3,25.9,16.8,25.9L16.8,25.9z"/>
	</g>
	<g>
		<path class="st6" d="M183.8,33.3c0.2,0.4,0.9,0.9,1.7,1c0.9,0.1,2.1,0,3.3-0.3c2.5-0.7,4.1-2,3.9-3.3l0-0.4
			c0.2,0.1,0.2,0.1,0.4,0.2c0,0,0.1,0.1,0.1,0.1c0.4,1.4-1.5,3.1-4.3,3.9s-5.3,0.4-5.7-1c-0.1-0.3,0.5-0.5,0.5-0.5"/>
	</g>
	<g>
		<path class="st6" d="M183.8,38.9c0.2,0.4,0.9,0.9,1.7,1c0.9,0.1,2.1,0,3.3-0.3c2.5-0.7,4.1-2,3.9-3.3l0-0.4
			c0.2,0.1,0.2,0.1,0.4,0.2c0,0,0.1,0.1,0.1,0.1c0.4,1.4-1.5,3.1-4.3,3.9s-5.3,0.4-5.7-1c-0.1-0.3,0.5-0.5,0.5-0.5"/>
	</g>
	<g>
		<path class="st6" d="M183.8,44.5c0.2,0.4,0.9,0.9,1.7,1c0.9,0.1,2.1,0,3.3-0.3c2.5-0.7,4.1-2,3.9-3.3l0-0.4
			c0.2,0.1,0.2,0.1,0.4,0.2c0,0,0.1,0.1,0.1,0.1c0.4,1.4-1.5,3.1-4.3,3.9s-5.3,0.4-5.7-1c-0.1-0.3,0.5-0.5,0.5-0.5"/>
	</g>
	<g>
		<path class="st6" d="M183.8,50.1c0.2,0.4,0.9,0.9,1.7,1c0.9,0.1,2.1,0,3.3-0.3c2.5-0.7,4.1-2,3.9-3.3l0-0.4
			c0.2,0.1,0.2,0.1,0.4,0.2c0,0,0.1,0.1,0.1,0.1c0.4,1.4-1.5,3.1-4.3,3.9s-5.3,0.4-5.7-1c-0.1-0.3,0.5-0.5,0.5-0.5"/>
	</g>
	<g>
		<path class="st6" d="M183.8,55.7c0.2,0.4,0.9,0.9,1.7,1c0.9,0.1,2.1,0,3.3-0.3c2.5-0.7,4.1-2,3.9-3.3l0-0.4
			c0.2,0.1,0.2,0.1,0.4,0.2c0,0,0.1,0.1,0.1,0.1c0.4,1.4-1.5,3.1-4.3,3.9s-5.3,0.4-5.7-1c-0.1-0.3,0.5-0.5,0.5-0.5"/>
	</g>
	<g>
		<path class="st6" d="M183.8,61.3c0.2,0.4,0.9,0.9,1.7,1c0.9,0.1,2.1,0,3.3-0.3c2.5-0.7,4.1-2,3.9-3.3l0-0.4
			c0.2,0.1,0.2,0.1,0.4,0.2c0,0,0.1,0.1,0.1,0.1c0.4,1.4-1.5,3.1-4.3,3.9s-5.3,0.4-5.7-1c-0.1-0.3,0.5-0.5,0.5-0.5"/>
	</g>
	<g>
		<path class="st6" d="M183.8,66.9c0.2,0.4,0.9,0.9,1.7,1c0.9,0.1,2.1,0,3.3-0.3c2.5-0.7,4.1-2,3.9-3.3l0-0.4
			c0.2,0.1,0.2,0.1,0.4,0.2c0,0,0.1,0.1,0.1,0.1c0.4,1.4-1.5,3.1-4.3,3.9s-5.3,0.4-5.7-1c-0.1-0.3,0.5-0.5,0.5-0.5"/>
	</g>
	<g>
		<path class="st6" d="M183.8,72.5c0.2,0.4,0.9,0.9,1.7,1c0.9,0.1,2.1,0,3.3-0.3c2.5-0.7,4.1-2,3.9-3.3l0-0.4
			c0.2,0.1,0.2,0.1,0.4,0.2c0,0,0.1,0.1,0.1,0.1c0.4,1.4-1.5,3.1-4.3,3.9s-5.3,0.4-5.7-1c-0.1-0.3,0.5-0.5,0.5-0.5"/>
	</g>
	<g>
		<path class="st6" d="M183.8,78.1c0.2,0.4,0.9,0.9,1.7,1c0.9,0.1,2.1,0,3.3-0.3c2.5-0.7,4.1-2,3.9-3.3l0-0.4
			c0.2,0.1,0.2,0.1,0.4,0.2c0,0,0.1,0.1,0.1,0.1c0.4,1.4-1.5,3.1-4.3,3.9s-5.3,0.4-5.7-1c-0.1-0.3,0.5-0.5,0.5-0.5"/>
	</g>
	<g>
		<path class="st6" d="M183.8,83.7c0.2,0.4,0.9,0.9,1.7,1c0.9,0.1,2.1,0,3.3-0.3c2.5-0.7,4.1-2,3.9-3.3l0-0.4
			c0.2,0.1,0.2,0.1,0.4,0.2c0,0,0.1,0.1,0.1,0.1c0.4,1.4-1.5,3.1-4.3,3.9s-5.3,0.4-5.7-1c-0.1-0.3,0.5-0.5,0.5-0.5"/>
	</g>
	<g>
		<path class="st6" d="M183.8,89.3c0.2,0.4,0.9,0.9,1.7,1c0.9,0.1,2.1,0,3.3-0.3c2.5-0.7,4.1-2,3.9-3.3l0-0.4
			c0.2,0.1,0.2,0.1,0.4,0.2c0,0,0.1,0.1,0.1,0.1c0.4,1.4-1.5,3.1-4.3,3.9s-5.3,0.4-5.7-1c-0.1-0.3,0.5-0.5,0.5-0.5"/>
	</g>
	<g>
		<path class="st6" d="M183.8,94.9c0.2,0.4,0.9,0.9,1.7,1c0.9,0.1,2.1,0,3.3-0.3c2.5-0.7,4.1-2,3.9-3.3l0-0.4
			c0.2,0.1,0.2,0.1,0.4,0.2c0,0,0.1,0.1,0.1,0.1c0.4,1.4-1.5,3.1-4.3,3.9s-5.3,0.4-5.7-1c-0.1-0.3,0.5-0.5,0.5-0.5"/>
	</g>
	<g>
		<path class="st6" d="M183.8,100.5c0.2,0.4,0.9,0.9,1.7,1c0.9,0.1,2.1,0,3.3-0.3c2.5-0.7,4.1-2,3.9-3.3l0-0.4
			c0.2,0.1,0.2,0.1,0.4,0.2c0,0,0.1,0.1,0.1,0.1c0.4,1.4-1.5,3.1-4.3,3.9s-5.3,0.4-5.7-1c-0.1-0.3,0.5-0.5,0.5-0.5"/>
	</g>
	<g>
		<path class="st6" d="M183.8,106.1c0.2,0.4,0.9,0.9,1.7,1c0.9,0.1,2.1,0,3.3-0.3c2.5-0.7,4.1-2,3.9-3.3l0-0.4
			c0.2,0.1,0.2,0.1,0.4,0.2c0,0,0.1,0.1,0.1,0.1c0.4,1.4-1.5,3.1-4.3,3.9s-5.3,0.4-5.7-1c-0.1-0.3,0.5-0.5,0.5-0.5"/>
	</g>
	<g>
		<path class="st6" d="M183.8,111.7c0.2,0.4,0.9,0.9,1.7,1c0.9,0.1,2.1,0,3.3-0.3c2.5-0.7,4.1-2,3.9-3.3l0-0.4
			c0.2,0.1,0.2,0.1,0.4,0.2c0,0,0.1,0.1,0.1,0.1c0.4,1.4-1.5,3.1-4.3,3.9s-5.3,0.4-5.7-1c-0.1-0.3,0.5-0.5,0.5-0.5"/>
	</g>
	<path class="st5" d="M183.2,43.2"/>
	<path class="st5" d="M188.3,45.6"/>
	<path class="st5" d="M183.2,49.9"/>
	<path class="st5" d="M188.3,52.3"/>
	<linearGradient id="SVGID_12_" gradientUnits="userSpaceOnUse" x1="103.5732" y1="129.793" x2="103.5732" y2="111.1384">
		<stop  offset="0" style="stop-color:#E2E2E2"/>
		<stop  offset="0.357" style="stop-color:#DFE0E0"/>
		<stop  offset="0.6062" style="stop-color:#D6DADA"/>
		<stop  offset="0.8219" style="stop-color:#C7D0CF"/>
		<stop  offset="0.9704" style="stop-color:#B7C6C4"/>
		<stop  offset="1" style="stop-color:#B4C4C2"/>
	</linearGradient>
	<path class="st17" d="M150.3,120.3c0-4-23.2-6.8-29.7-8.9c-5-1.6-12.8,3.9-18.8,3.9c-7.3,0-12.8-6-18.5-3.6
		c-5.5,2.3-26.5,4.8-26.5,8.6c0,5.2,20.9,9.5,46.8,9.5C129.4,129.8,150.3,125.5,150.3,120.3z"/>
	<g>
		<path class="st6" d="M12.4,33.3c0.2,0.4,0.9,0.9,1.7,1c0.9,0.1,2.1,0,3.3-0.3c2.5-0.7,4.1-2,3.9-3.3l0-0.4
			c0.2,0.1,0.2,0.1,0.4,0.2c0,0,0.1,0.1,0.1,0.1c0.4,1.4-1.5,3.1-4.3,3.9s-5.3,0.4-5.7-1c-0.1-0.3,0.5-0.5,0.5-0.5"/>
	</g>
	<g>
		<path class="st6" d="M12.4,38.9c0.2,0.4,0.9,0.9,1.7,1c0.9,0.1,2.1,0,3.3-0.3c2.5-0.7,4.1-2,3.9-3.3l0-0.4
			c0.2,0.1,0.2,0.1,0.4,0.2c0,0,0.1,0.1,0.1,0.1c0.4,1.4-1.5,3.1-4.3,3.9s-5.3,0.4-5.7-1c-0.1-0.3,0.5-0.5,0.5-0.5"/>
	</g>
	<g>
		<path class="st6" d="M12.4,44.5c0.2,0.4,0.9,0.9,1.7,1c0.9,0.1,2.1,0,3.3-0.3c2.5-0.7,4.1-2,3.9-3.3l0-0.4
			c0.2,0.1,0.2,0.1,0.4,0.2c0,0,0.1,0.1,0.1,0.1c0.4,1.4-1.5,3.1-4.3,3.9s-5.3,0.4-5.7-1c-0.1-0.3,0.5-0.5,0.5-0.5"/>
	</g>
	<g>
		<path class="st6" d="M12.4,50.1c0.2,0.4,0.9,0.9,1.7,1c0.9,0.1,2.1,0,3.3-0.3c2.5-0.7,4.1-2,3.9-3.3l0-0.4
			c0.2,0.1,0.2,0.1,0.4,0.2c0,0,0.1,0.1,0.1,0.1c0.4,1.4-1.5,3.1-4.3,3.9s-5.3,0.4-5.7-1c-0.1-0.3,0.5-0.5,0.5-0.5"/>
	</g>
	<g>
		<path class="st6" d="M12.4,55.7c0.2,0.4,0.9,0.9,1.7,1c0.9,0.1,2.1,0,3.3-0.3c2.5-0.7,4.1-2,3.9-3.3l0-0.4
			c0.2,0.1,0.2,0.1,0.4,0.2c0,0,0.1,0.1,0.1,0.1c0.4,1.4-1.5,3.1-4.3,3.9s-5.3,0.4-5.7-1c-0.1-0.3,0.5-0.5,0.5-0.5"/>
	</g>
	<g>
		<path class="st6" d="M12.4,61.3c0.2,0.4,0.9,0.9,1.7,1c0.9,0.1,2.1,0,3.3-0.3c2.5-0.7,4.1-2,3.9-3.3l0-0.4
			c0.2,0.1,0.2,0.1,0.4,0.2c0,0,0.1,0.1,0.1,0.1c0.4,1.4-1.5,3.1-4.3,3.9s-5.3,0.4-5.7-1c-0.1-0.3,0.5-0.5,0.5-0.5"/>
	</g>
	<g>
		<path class="st6" d="M12.4,66.9c0.2,0.4,0.9,0.9,1.7,1c0.9,0.1,2.1,0,3.3-0.3c2.5-0.7,4.1-2,3.9-3.3l0-0.4
			c0.2,0.1,0.2,0.1,0.4,0.2c0,0,0.1,0.1,0.1,0.1c0.4,1.4-1.5,3.1-4.3,3.9s-5.3,0.4-5.7-1c-0.1-0.3,0.5-0.5,0.5-0.5"/>
	</g>
	<g>
		<path class="st6" d="M12.4,72.5c0.2,0.4,0.9,0.9,1.7,1c0.9,0.1,2.1,0,3.3-0.3c2.5-0.7,4.1-2,3.9-3.3l0-0.4
			c0.2,0.1,0.2,0.1,0.4,0.2c0,0,0.1,0.1,0.1,0.1c0.4,1.4-1.5,3.1-4.3,3.9s-5.3,0.4-5.7-1c-0.1-0.3,0.5-0.5,0.5-0.5"/>
	</g>
	<g>
		<path class="st6" d="M12.4,78.1c0.2,0.4,0.9,0.9,1.7,1c0.9,0.1,2.1,0,3.3-0.3c2.5-0.7,4.1-2,3.9-3.3l0-0.4
			c0.2,0.1,0.2,0.1,0.4,0.2c0,0,0.1,0.1,0.1,0.1c0.4,1.4-1.5,3.1-4.3,3.9s-5.3,0.4-5.7-1c-0.1-0.3,0.5-0.5,0.5-0.5"/>
	</g>
	<g>
		<path class="st6" d="M12.4,83.7c0.2,0.4,0.9,0.9,1.7,1c0.9,0.1,2.1,0,3.3-0.3c2.5-0.7,4.1-2,3.9-3.3l0-0.4
			c0.2,0.1,0.2,0.1,0.4,0.2c0,0,0.1,0.1,0.1,0.1c0.4,1.4-1.5,3.1-4.3,3.9s-5.3,0.4-5.7-1c-0.1-0.3,0.5-0.5,0.5-0.5"/>
	</g>
	<g>
		<path class="st6" d="M12.4,89.3c0.2,0.4,0.9,0.9,1.7,1c0.9,0.1,2.1,0,3.3-0.3c2.5-0.7,4.1-2,3.9-3.3l0-0.4
			c0.2,0.1,0.2,0.1,0.4,0.2c0,0,0.1,0.1,0.1,0.1c0.4,1.4-1.5,3.1-4.3,3.9s-5.3,0.4-5.7-1c-0.1-0.3,0.5-0.5,0.5-0.5"/>
	</g>
	<g>
		<path class="st6" d="M12.4,94.9c0.2,0.4,0.9,0.9,1.7,1c0.9,0.1,2.1,0,3.3-0.3c2.5-0.7,4.1-2,3.9-3.3l0-0.4
			c0.2,0.1,0.2,0.1,0.4,0.2c0,0,0.1,0.1,0.1,0.1c0.4,1.4-1.5,3.1-4.3,3.9s-5.3,0.4-5.7-1c-0.1-0.3,0.5-0.5,0.5-0.5"/>
	</g>
	<g>
		<path class="st6" d="M12.4,100.5c0.2,0.4,0.9,0.9,1.7,1c0.9,0.1,2.1,0,3.3-0.3c2.5-0.7,4.1-2,3.9-3.3l0-0.4
			c0.2,0.1,0.2,0.1,0.4,0.2c0,0,0.1,0.1,0.1,0.1c0.4,1.4-1.5,3.1-4.3,3.9s-5.3,0.4-5.7-1c-0.1-0.3,0.5-0.5,0.5-0.5"/>
	</g>
	<g>
		<path class="st6" d="M12.4,106.1c0.2,0.4,0.9,0.9,1.7,1c0.9,0.1,2.1,0,3.3-0.3c2.5-0.7,4.1-2,3.9-3.3l0-0.4
			c0.2,0.1,0.2,0.1,0.4,0.2c0,0,0.1,0.1,0.1,0.1c0.4,1.4-1.5,3.1-4.3,3.9s-5.3,0.4-5.7-1c-0.1-0.3,0.5-0.5,0.5-0.5"/>
	</g>
	<g>
		<path class="st6" d="M12.4,111.7c0.2,0.4,0.9,0.9,1.7,1c0.9,0.1,2.1,0,3.3-0.3c2.5-0.7,4.1-2,3.9-3.3l0-0.4
			c0.2,0.1,0.2,0.1,0.4,0.2c0,0,0.1,0.1,0.1,0.1c0.4,1.4-1.5,3.1-4.3,3.9s-5.3,0.4-5.7-1c-0.1-0.3,0.5-0.5,0.5-0.5"/>
	</g>
	<path class="st5" d="M16.9,45.6"/>
	<path class="st5" d="M16.9,52.3"/>
</g>
</svg>
